<svg width="142" height="34" viewBox="0 0 142 34" fill="none" xmlns="http://www.w3.org/2000/svg">
<path d="M27.1992 15.8061C26.8332 16.1721 26.5587 16.5381 26.3757 16.9956C26.1927 17.453 26.1927 17.9105 26.1927 18.4595C26.2842 19.0084 26.1927 19.6489 26.0097 20.1978C25.8268 20.7468 25.4608 21.2043 25.0948 21.6617C24.7288 22.0277 24.1799 22.3937 23.6309 22.5767C23.082 22.7597 22.533 22.8511 21.8925 22.7597C21.1606 22.6682 20.5201 22.8511 19.8797 23.2171C19.2392 23.5831 18.7818 24.0406 18.5073 24.681C18.2378 25.3154 18.143 26.0104 18.2328 26.6939C18.3243 27.3343 18.6903 27.9748 19.1477 28.5237C19.6052 28.9812 20.2457 29.3472 20.9776 29.4387C21.661 29.5285 22.356 29.4337 22.9905 29.1642C23.6309 28.8897 24.1799 28.4323 24.4544 27.7918C24.7288 27.1513 24.9118 26.5109 24.9118 25.7789C24.8203 25.23 24.9118 24.5895 25.0948 24.0406C25.2778 23.4916 25.6438 23.0341 26.0097 22.5767C26.3757 22.2107 26.9247 21.8447 27.4736 21.6617C28.0226 21.4787 28.5716 21.3873 29.212 21.4787C29.761 21.5702 30.3099 21.4787 30.8589 21.2043C31.4079 21.0213 31.8653 20.6553 32.1398 20.1978C32.5058 19.7404 32.6888 19.1914 32.7803 18.6424C32.8718 18.0935 32.7803 17.5445 32.5973 16.9956C32.4143 16.4466 32.0483 15.9891 31.6823 15.6232C31.2249 15.2572 30.7674 14.9827 30.2184 14.8912C29.6695 14.7997 29.1205 14.7997 28.5716 14.9827C28.1141 15.0742 27.6566 15.3487 27.1992 15.8061ZM20.4286 20.5638C20.8861 20.5638 21.4351 20.5638 21.8925 20.3808C22.35 20.1978 22.8075 19.9234 23.082 19.5574C23.4479 19.1914 23.7224 18.8254 23.9054 18.368C24.0884 17.9105 24.0884 17.453 24.0884 16.9041C23.9969 16.3551 24.0884 15.7147 24.2714 15.1657C24.4544 14.6167 24.8203 14.1593 25.1863 13.7018C25.5523 13.3358 26.1012 12.9698 26.6502 12.7869C27.1992 12.6039 27.7481 12.5124 28.3886 12.6039C29.1205 12.6954 29.761 12.5124 30.4014 12.1464C31.0419 11.7804 31.4994 11.323 31.7738 10.6825C32.0434 10.0481 32.1381 9.35308 32.0483 8.66965C31.9568 8.0292 31.5909 7.38874 31.1334 6.83978C30.6759 6.38231 30.0355 6.01634 29.3035 5.92485C28.6201 5.83502 27.9251 5.9298 27.2907 6.19933C26.6502 6.47381 26.1012 6.93128 25.8268 7.57173C25.4608 8.21218 25.3693 8.85264 25.3693 9.58459C25.4608 10.1335 25.3693 10.774 25.1863 11.323C25.0033 11.8719 24.6373 12.3294 24.2714 12.7869C23.9054 13.1528 23.3564 13.5188 22.8075 13.7018C22.2585 13.8848 21.7096 13.9763 21.0691 13.8848C20.6116 13.7933 20.0627 13.8848 19.6052 14.0678C19.1477 14.2508 18.6903 14.5252 18.4158 14.8912C18.0498 15.2572 17.7753 15.6232 17.5923 16.0806C17.4094 16.5381 17.4094 16.9956 17.4094 17.5445C17.5009 18.0935 17.4094 18.7339 17.2264 19.2829C17.0434 19.8319 16.6774 20.2893 16.3114 20.7468C15.9455 21.1128 15.3965 21.4787 14.8475 21.6617C14.2986 21.7532 13.6581 21.8447 13.1092 21.8447C12.3772 21.7532 11.7368 21.9362 11.0963 22.3022C10.4559 22.6682 9.99838 23.1256 9.7239 23.7661C9.45437 24.4005 9.3596 25.0955 9.44942 25.7789C9.54092 26.4194 9.90689 27.0598 10.3644 27.6088C10.8218 28.0663 11.4623 28.4323 12.1942 28.5237C12.8777 28.6136 13.5727 28.5188 14.2071 28.2493C14.8475 27.9748 15.3965 27.5173 15.671 26.8769C16.037 26.2364 16.1284 25.596 16.1284 24.864C16.037 24.315 16.1284 23.6746 16.3114 23.1256C16.4944 22.5767 16.8604 22.1192 17.2264 21.6617C17.5923 21.2958 18.1413 20.9298 18.6903 20.7468L20.4286 20.5638ZM14.2986 18.7339C14.6646 18.368 14.939 18.002 15.0305 17.5445C15.122 17.0871 15.2135 16.6296 15.2135 16.0806C15.122 15.5317 15.2135 14.8912 15.3965 14.3422C15.5795 13.7933 15.9455 13.3358 16.3114 12.8784C16.6774 12.5124 17.2264 12.1464 17.7753 11.9634C18.3243 11.7804 18.8733 11.6889 19.5137 11.7804C20.2457 11.8719 20.8861 11.6889 21.5266 11.323C22.167 10.957 22.6245 10.4995 22.899 9.85907C23.1685 9.22464 23.2633 8.52963 23.1734 7.84621C23.082 7.20576 22.716 6.5653 22.2585 6.01634C21.801 5.55887 21.1606 5.1929 20.4286 5.1014C19.7452 5.01158 19.0502 5.10636 18.4158 5.37589C17.7753 5.65037 17.2264 6.10783 16.9519 6.74829C16.5859 7.38874 16.4944 8.0292 16.4944 8.76114C16.5859 9.31011 16.4944 9.95056 16.3114 10.4995C16.1284 11.0485 15.7625 11.506 15.3965 11.9634C15.0305 12.3294 14.4816 12.6954 13.9326 12.8784C13.3836 13.0613 12.8347 13.1528 12.1942 13.0613C11.6453 12.9698 11.0963 13.0613 10.5473 13.3358C9.99838 13.5188 9.54092 13.8848 9.26644 14.3422C8.90046 14.7997 8.71747 15.3487 8.62598 15.8976C8.53449 16.4466 8.62598 16.9956 8.80897 17.5445C8.99196 18.0935 9.35793 18.551 9.7239 18.9169C10.1814 19.2829 10.6388 19.5574 11.1878 19.6489C11.7368 19.7404 12.2857 19.7404 12.8347 19.5574C13.4751 19.4659 13.9326 19.1914 14.2986 18.7339ZM42.6616 9.67608H45.4064V22.9426H42.6616V9.67608ZM46.9618 18.368C46.9618 17.453 47.2362 16.4466 47.7852 15.7147C48.3342 14.8912 49.0661 14.3422 49.981 13.9763C50.896 13.6103 51.8109 13.5188 52.7259 13.7018C53.6408 13.8848 54.5557 14.3422 55.1962 14.9827C55.8366 15.6232 56.2941 16.5381 56.4771 17.453C56.6601 18.368 56.5686 19.3744 56.2026 20.1978C55.8366 21.1128 55.1962 21.8447 54.4642 22.3937C53.6812 22.9255 52.7575 23.2122 51.8109 23.2171C51.1705 23.2171 50.53 23.1256 49.981 22.8511C49.4321 22.5767 48.8831 22.3022 48.4257 21.8447C47.9682 21.3873 47.6022 20.8383 47.4192 20.2893C47.1148 19.6948 46.9579 19.0358 46.9618 18.368ZM53.8238 18.368C53.8238 18.002 53.6408 17.5445 53.4578 17.27C53.1833 16.9041 52.9088 16.7211 52.5429 16.5381C52.1769 16.3551 51.7194 16.3551 51.3534 16.4466C50.9875 16.5381 50.6215 16.7211 50.347 16.9956C50.0725 17.27 49.8896 17.636 49.7981 18.0935C49.7066 18.4595 49.7981 18.9169 49.8896 19.2829C50.0725 19.6489 50.347 20.0148 50.6215 20.1978C50.9875 20.3808 51.3534 20.5638 51.8109 20.5638C52.0854 20.5638 52.3599 20.5638 52.6344 20.3808C52.9088 20.2893 53.0918 20.1063 53.3663 19.9234C53.5493 19.7404 53.7323 19.4659 53.8238 19.1914V18.368ZM67.3648 13.7933V22.3937C67.3648 25.413 64.986 26.6939 62.6072 26.6939C61.7837 26.7854 60.8688 26.6024 60.1368 26.2364C59.4049 25.8704 58.7644 25.23 58.307 24.498L60.5943 23.1256C60.7773 23.4916 61.0518 23.8576 61.4177 24.0406C61.7894 24.2179 62.1954 24.3116 62.6072 24.315C62.8816 24.315 63.1561 24.315 63.4306 24.2235C63.7051 24.1321 63.8881 24.0406 64.1625 23.8576C64.3446 23.6669 64.4986 23.4512 64.62 23.2171C64.7115 22.9426 64.7115 22.6682 64.7115 22.3937V21.5702C64.3998 21.9719 63.9903 22.2869 63.5221 22.4852C63.0646 22.6682 62.6072 22.7597 62.0582 22.7597C60.8688 22.7597 59.7709 22.2107 58.8559 21.3873C58.0325 20.5638 57.575 19.3744 57.575 18.185C57.575 16.9956 58.0325 15.8061 58.8559 14.9827C59.6794 14.1593 60.7773 13.6103 62.0582 13.6103C62.5587 13.6126 63.0547 13.7056 63.5221 13.8848C63.9796 14.0678 64.3455 14.4337 64.7115 14.7997V13.8848L67.3648 13.7933ZM64.7115 18.185C64.7115 17.7275 64.62 17.27 64.3455 16.9041C64.071 16.5381 63.7966 16.2636 63.3391 16.0806C62.9439 15.8803 62.4937 15.816 62.0582 15.8976C61.6007 15.9891 61.2347 16.1721 60.8688 16.4466C60.5943 16.7211 60.3198 17.1785 60.2283 17.5445C60.1368 18.002 60.1368 18.4595 60.3198 18.8254C60.5028 19.1914 60.7773 19.5574 61.1433 19.8319C61.5092 20.1063 61.9667 20.1978 62.3327 20.1978C62.6072 20.1978 62.8816 20.1978 63.1561 20.1063C63.4306 20.0148 63.7051 19.8319 63.8881 19.6489C64.071 19.4659 64.254 19.1914 64.3455 18.9169C64.7115 18.7339 64.7115 18.4595 64.7115 18.185ZM68.9202 18.368C68.9202 17.453 69.1947 16.4466 69.7436 15.7147C70.2926 14.8912 71.0246 14.3422 71.9395 13.9763C72.8544 13.6103 73.7694 13.5188 74.6843 13.7018C75.5992 13.8848 76.5142 14.3422 77.1546 14.9827C77.7951 15.6232 78.2525 16.5381 78.4355 17.453C78.6185 18.368 78.527 19.3744 78.161 20.1978C77.7951 21.1128 77.1546 21.8447 76.4227 22.3937C75.6396 22.9255 74.7159 23.2122 73.7694 23.2171C73.1289 23.2171 72.4885 23.1256 71.9395 22.8511C71.3905 22.5767 70.8416 22.3022 70.3841 21.8447C69.9266 21.3873 69.5607 20.8383 69.3777 20.2893C69.0733 19.6948 68.9164 19.0358 68.9202 18.368ZM75.7822 18.368C75.7822 18.002 75.5992 17.5445 75.4162 17.27C75.1418 16.9041 74.8673 16.7211 74.5013 16.5381C74.1353 16.3551 73.6779 16.3551 73.3119 16.4466C72.9459 16.5381 72.5799 16.7211 72.214 16.9956C71.9395 17.27 71.7565 17.636 71.665 18.0935C71.5735 18.4595 71.665 18.9169 71.7565 19.2829C71.848 19.6489 72.214 20.0148 72.4884 20.1978C72.8544 20.3808 73.2204 20.5638 73.6779 20.5638C73.9523 20.5638 74.2268 20.5638 74.5013 20.3808C74.7758 20.2893 74.9588 20.1063 75.2333 19.9234C75.4162 19.7404 75.5992 19.4659 75.6907 19.1914C75.7822 18.9169 75.7822 18.6424 75.7822 18.368ZM79.8079 11.4145C79.8006 11.0882 79.8966 10.7679 80.0824 10.4995C80.2654 10.225 80.5399 10.0421 80.8144 9.85907C81.0888 9.76757 81.4548 9.67608 81.7293 9.76757C82.0038 9.85907 82.3698 9.95056 82.5527 10.225C82.7357 10.408 82.9187 10.774 83.0102 11.0485C83.1017 11.323 83.0102 11.6889 82.9187 11.9634C82.8272 12.2379 82.5527 12.5124 82.2783 12.6954C82.0099 12.8811 81.6896 12.9772 81.3633 12.9698C80.9059 12.9698 80.5399 12.7869 80.1739 12.5124C79.9909 12.2379 79.8079 11.7804 79.8079 11.4145ZM80.0824 13.7933H82.8272V22.8511H80.0824V13.7933ZM94.5384 18.368C94.5384 19.0084 94.4469 19.5574 94.2639 20.1063C94.0809 20.6553 93.7149 21.2043 93.349 21.6617C92.983 22.1192 92.434 22.4852 91.8851 22.7597C91.3361 23.0341 90.7871 23.1256 90.1467 23.2171C89.5977 23.2171 89.1403 23.1256 88.6828 22.9426C88.2253 22.7597 87.7679 22.4852 87.4934 22.1192V26.6024H84.7486V13.7933H87.4934V14.6167C87.8594 14.2508 88.2253 13.9763 88.6828 13.7933C89.1502 13.6141 89.6462 13.5212 90.1467 13.5188C90.7871 13.5188 91.3361 13.7018 91.8851 13.9763C92.434 14.2508 92.8915 14.6167 93.349 15.0742C93.7149 15.5317 94.0809 16.0806 94.2639 16.6296C94.4469 17.1785 94.5384 17.7275 94.5384 18.368ZM91.7936 18.368C91.7936 17.9105 91.6106 17.5445 91.4276 17.1785C91.1531 16.8126 90.8786 16.5381 90.4212 16.4466C90.0552 16.2636 89.5977 16.2636 89.1403 16.3551C88.6828 16.4466 88.3168 16.6296 88.0423 16.9956C87.7679 17.27 87.5849 17.7275 87.4934 18.0935C87.4019 18.551 87.4934 18.9169 87.5849 19.3744C87.7679 19.7404 88.0424 20.1063 88.4083 20.2893C88.7743 20.5638 89.1403 20.6553 89.5977 20.6553C89.8722 20.6553 90.1467 20.6553 90.4212 20.4723C90.6957 20.3808 90.9701 20.1978 91.1531 20.0148C91.3361 19.8319 91.5191 19.5574 91.6106 19.2829C91.7936 18.9169 91.7936 18.6424 91.7936 18.368ZM102.864 20.1063C102.864 22.2107 101.034 23.0341 99.1131 23.0341C98.2896 23.1256 97.5577 22.9426 96.8257 22.5767C96.0938 22.2107 95.5448 21.5702 95.1788 20.9298L97.5577 19.5574C97.6492 19.9234 97.8322 20.1978 98.1066 20.3808C98.3806 20.5546 98.6972 20.6496 99.0216 20.6553C99.662 20.6553 100.028 20.4723 100.028 20.1063C100.028 19.0999 95.5448 19.6489 95.5448 16.5381C95.5448 14.5252 97.1917 13.6103 99.1131 13.6103C99.845 13.6103 100.485 13.7933 101.126 14.0678C101.742 14.4088 102.249 14.916 102.59 15.5317L100.302 16.8126C100.211 16.5381 100.028 16.3551 99.845 16.2636C99.662 16.1721 99.3875 16.0806 99.1131 16.0806C98.6556 16.0806 98.3811 16.2636 98.3811 16.6296C98.4726 17.453 102.864 16.8126 102.864 20.1063ZM112.837 13.7933V22.8511H110.092V22.0277C109.818 22.3937 109.36 22.6682 108.903 22.8511C108.445 23.0341 107.988 23.1256 107.439 23.1256C105.609 23.1256 104.054 21.8447 104.054 19.3744V13.7933H106.799V18.9169C106.799 19.0999 106.799 19.3744 106.89 19.5574C106.981 19.7404 107.073 19.9234 107.256 20.1063C107.439 20.2893 107.622 20.3808 107.805 20.4723C107.988 20.5638 108.262 20.5638 108.445 20.5638C109.452 20.5638 110.092 20.0148 110.092 18.7339V13.7933H112.837ZM128.391 17.27V22.8511H125.646V17.5445C125.646 16.6296 125.189 16.0806 124.365 16.0806C123.45 16.0806 122.993 16.7211 122.993 17.819V22.9426H120.248V17.636C120.248 16.7211 119.791 16.1721 118.967 16.1721C118.052 16.1721 117.595 16.8126 117.595 17.9105V23.0341H114.85V13.9763H117.595V14.7997C117.877 14.4281 118.257 14.1429 118.693 13.9763C119.15 13.7933 119.608 13.7018 120.065 13.7018C120.523 13.7018 120.98 13.7933 121.437 13.9763C121.895 14.1593 122.169 14.5252 122.444 14.8912C122.756 14.4896 123.165 14.1746 123.633 13.9763C124.101 13.7971 124.597 13.7041 125.097 13.7018C127.019 13.5188 128.391 15.0742 128.391 17.27ZM130.678 13.7018C131.211 13.697 131.72 13.4834 132.096 13.107C132.473 12.7305 132.686 12.2213 132.691 11.6889C132.686 11.1566 132.473 10.6474 132.096 10.2709C131.72 9.89446 131.211 9.68085 130.678 9.67608C130.146 9.68085 129.637 9.89446 129.26 10.2709C128.884 10.6474 128.67 11.1566 128.665 11.6889C128.665 12.8784 129.58 13.7018 130.678 13.7018Z" fill="#B4B7C9"/>
</svg>
