<svg width="142" height="34" viewBox="0 0 142 34" fill="none" xmlns="http://www.w3.org/2000/svg">
<path d="M23.8138 7.84633V3.91211H11.5537V30.6282H23.8138V26.7855C21.3435 26.7855 18.8732 25.7791 17.1348 24.0407C15.3964 22.3023 14.39 19.832 14.39 17.3617C14.39 14.8913 15.3964 12.421 17.1348 10.6826C18.9647 8.76127 21.3435 7.84633 23.8138 7.84633Z" fill="#B4B7C9"/>
<path d="M23.8138 7.84631V26.7855C26.2842 26.7855 28.7545 25.779 30.4929 24.0407C32.2312 22.3023 33.2377 19.832 33.2377 17.3616C33.2377 14.8913 32.2312 12.421 30.4929 10.6826C28.7545 8.76125 26.3757 7.84631 23.8138 7.84631ZM40.1912 10.2251H42.936V23.4002H40.1912V10.2251ZM44.4914 18.917C44.4914 18.0021 44.7659 16.9957 45.3148 16.2637C45.8638 15.4403 46.5957 14.8913 47.5107 14.5253C48.4256 14.1594 49.3405 14.0679 50.2555 14.2509C51.1704 14.4338 52.0853 14.8913 52.7258 15.5318C53.3662 16.1722 53.8237 17.0872 54.0067 18.0021C54.1897 18.917 54.0982 19.9235 53.7322 20.7469C53.3662 21.6618 52.7258 22.3938 51.9938 22.8513C51.2108 23.3831 50.2871 23.6697 49.3405 23.6747C48.7001 23.6747 48.0596 23.5832 47.5107 23.3087C46.9617 23.0342 46.4127 22.7598 45.9553 22.3023C45.4978 21.8448 45.1318 21.2959 44.9488 20.7469C44.5829 20.1064 44.4914 19.466 44.4914 18.917ZM51.3534 18.917C51.3534 18.5511 51.1704 18.0936 50.9874 17.8191C50.7129 17.4531 50.4385 17.2701 50.0725 17.0872C49.7065 16.9042 49.249 16.9042 48.8831 16.9957C48.5171 17.0872 48.1511 17.2701 47.7851 17.5446C47.5107 17.8191 47.3277 18.1851 47.2362 18.6425C47.1447 19.0085 47.2362 19.466 47.3277 19.832C47.5107 20.1979 47.7851 20.5639 48.0596 20.7469C48.4256 20.9299 48.7916 21.1129 49.249 21.1129C49.5235 21.1129 49.798 21.0214 50.0725 20.9299C50.347 20.8384 50.5299 20.6554 50.7129 20.4724C50.8959 20.2894 51.0789 20.015 51.1704 19.7405C51.3534 19.466 51.3534 19.1915 51.3534 18.917ZM64.8944 14.3424V22.9427C64.8944 25.962 62.5156 27.2429 60.1368 27.2429C59.3133 27.3344 58.3984 27.1514 57.6664 26.7855C56.9345 26.4195 56.294 25.779 55.8366 25.0471L58.1239 23.6747C58.3069 24.0407 58.5814 24.4066 58.9473 24.5896C59.319 24.7669 59.725 24.8606 60.1368 24.8641C60.4112 24.8641 60.6857 24.8641 60.9602 24.7726C61.2347 24.6811 61.4177 24.5896 61.6922 24.4066C61.8751 24.2236 62.0581 24.0407 62.1496 23.7662C62.2411 23.4917 62.3326 23.2172 62.2411 22.9427V22.1193C61.9294 22.5209 61.5199 22.836 61.0517 23.0342C60.5942 23.2172 60.1368 23.3087 59.5878 23.3087C58.3984 23.3087 57.209 22.8512 56.3855 21.9363C55.5621 21.1129 55.0131 19.9235 55.0131 18.734C55.0131 17.5446 55.4706 16.3552 56.3855 15.5318C57.209 14.7083 58.3984 14.1594 59.5878 14.1594C60.0883 14.1617 60.5843 14.2547 61.0517 14.4338C61.5092 14.6168 61.8751 14.9828 62.2411 15.3488V14.4338L64.8944 14.3424ZM62.2411 18.6425C62.2411 18.1851 62.1496 17.7276 61.8751 17.3616C61.6007 16.9957 61.3262 16.7212 60.8687 16.5382C60.4735 16.3379 60.0233 16.2736 59.5878 16.3552C59.1303 16.4467 58.7644 16.6297 58.3984 16.9042C58.1239 17.1787 57.8494 17.6361 57.7579 18.0021C57.6664 18.4596 57.6664 18.917 57.8494 19.283C58.0324 19.649 58.3069 20.0149 58.6729 20.2894C59.0388 20.5639 59.4963 20.6554 59.8623 20.6554C60.1368 20.6554 60.4112 20.6554 60.6857 20.5639C60.9602 20.4724 61.2347 20.2894 61.4177 20.1064C61.6007 19.9235 61.7836 19.649 61.8751 19.3745C62.2411 19.283 62.2411 19.0085 62.2411 18.6425ZM66.4498 18.917C66.4498 18.0021 66.7243 16.9957 67.2733 16.2637C67.8222 15.4403 68.5542 14.8913 69.4691 14.5253C70.384 14.1594 71.299 14.0679 72.2139 14.2509C73.1288 14.4338 74.0438 14.8913 74.6842 15.5318C75.3247 16.1722 75.7822 17.0872 75.9651 18.0021C76.1481 18.917 76.0566 19.9235 75.6907 20.7469C75.3247 21.6618 74.6842 22.3938 73.9523 22.9427C73.1692 23.4746 72.2455 23.7612 71.299 23.7662C70.6585 23.7662 70.0181 23.6747 69.4691 23.4002C68.9201 23.1257 68.3712 22.8512 67.9137 22.3938C67.4562 21.9363 67.0903 21.3874 66.9073 20.8384C66.6029 20.2439 66.446 19.5849 66.4498 18.917ZM73.3118 18.917C73.3118 18.5511 73.1288 18.0936 72.9459 17.7276C72.6714 17.3616 72.3969 17.1787 72.0309 16.9957C71.6649 16.8127 71.2075 16.8127 70.8415 16.9042C70.4755 16.9957 70.1096 17.1787 69.7436 17.4531C69.3776 17.7276 69.2861 18.0936 69.1946 18.5511C69.1031 18.917 69.1946 19.3745 69.2861 19.7405C69.4691 20.1064 69.7436 20.4724 70.0181 20.6554C70.384 20.8384 70.75 21.0214 71.2075 21.0214C71.482 21.0214 71.7564 20.9299 72.0309 20.8384C72.3054 20.7469 72.4884 20.5639 72.6714 20.3809C72.8544 20.1979 73.0373 19.9235 73.1288 19.649C73.3118 19.466 73.3118 19.1915 73.3118 18.917ZM77.246 11.9635C77.2387 11.6372 77.3348 11.317 77.5205 11.0486C77.7035 10.7741 77.978 10.5911 78.2525 10.4081C78.527 10.3166 78.8929 10.2251 79.1674 10.3166C79.4419 10.4081 79.8079 10.4996 79.9909 10.7741C80.1738 10.9571 80.3568 11.3231 80.4483 11.5975C80.5398 11.872 80.4483 12.238 80.3568 12.5125C80.2653 12.787 79.9909 13.0614 79.7164 13.2444C79.448 13.4302 79.1277 13.5263 78.8014 13.5189C78.344 13.5189 77.978 13.3359 77.612 13.0614C77.429 12.787 77.3375 12.3295 77.246 11.9635ZM77.5205 14.3424H80.2653V23.4002H77.5205V14.3424ZM92.068 18.917C92.068 19.5575 91.9765 20.1064 91.7935 20.6554C91.6105 21.2044 91.2446 21.7533 90.8786 22.2108C90.5126 22.6683 89.9636 23.0342 89.4147 23.3087C88.8657 23.5832 88.3168 23.6747 87.6763 23.7662C87.1273 23.7662 86.6699 23.6747 86.2124 23.4917C85.7549 23.3087 85.2975 23.0342 84.9315 22.6683V27.1514H82.1867V14.3424H84.9315V15.1658C85.2975 14.7998 85.6634 14.5253 86.2124 14.3424C86.6798 14.1632 87.1758 14.0702 87.6763 14.0679C88.3168 14.0679 88.8657 14.2509 89.4147 14.5253C89.9636 14.7998 90.4211 15.1658 90.8786 15.6233C91.2446 16.0807 91.6105 16.6297 91.7935 17.1787C91.9765 17.6361 92.068 18.2766 92.068 18.917ZM89.3232 18.917C89.3232 18.4596 89.1402 18.0936 88.9572 17.7276C88.6827 17.3616 88.4083 17.0872 87.9508 16.9957C87.5848 16.8127 87.1273 16.8127 86.6699 16.9042C86.2124 16.9957 85.8464 17.1787 85.572 17.5446C85.2975 17.8191 85.1145 18.2766 85.023 18.6425C84.9315 19.1 85.023 19.466 85.1145 19.9235C85.2975 20.2894 85.572 20.6554 85.9379 20.8384C86.3039 21.1129 86.6699 21.2044 87.1273 21.2044C87.4018 21.2044 87.6763 21.2044 87.9508 21.0214C88.2253 20.9299 88.4997 20.7469 88.6827 20.5639C88.8657 20.3809 89.0487 20.1064 89.1402 19.832C89.3232 19.466 89.3232 19.1915 89.3232 18.917ZM100.394 20.6554C100.394 22.7598 98.564 23.5832 96.6427 23.5832C95.8192 23.6747 95.0873 23.4917 94.3553 23.1257C93.6234 22.7598 93.0744 22.1193 92.7085 21.4788L95.0873 20.1064C95.1788 20.4724 95.3618 20.7469 95.6362 20.9299C95.9102 21.1037 96.2268 21.1987 96.5512 21.2044C97.1916 21.2044 97.5576 21.0214 97.5576 20.6554C97.5576 19.649 93.0744 20.1979 93.0744 17.0872C93.0744 15.0743 94.7213 14.1594 96.6427 14.1594C97.3746 14.1594 98.1066 14.2509 98.747 14.6168C99.3875 14.9828 99.9364 15.4403 100.302 16.0807L97.9236 17.3616C97.8321 17.0872 97.6491 16.9042 97.4661 16.8127C97.2831 16.6297 97.0086 16.6297 96.7342 16.6297C96.2767 16.6297 96.0022 16.8127 96.0022 17.0872C95.9107 18.0021 100.394 17.3616 100.394 20.6554ZM110.367 14.3424V23.4002H107.622V22.5768C107.347 22.9427 106.89 23.2172 106.432 23.4917C105.975 23.6747 105.518 23.7662 104.969 23.7662C103.139 23.7662 101.583 22.4853 101.583 20.015V14.4338H104.328V19.5575C104.328 19.7405 104.328 20.015 104.42 20.1979C104.511 20.3809 104.603 20.5639 104.786 20.7469C104.969 20.9299 105.152 21.0214 105.335 21.1129C105.518 21.2044 105.792 21.2044 105.975 21.2044C106.981 21.2044 107.622 20.6554 107.622 19.3745V14.4338H110.367V14.3424ZM125.921 17.8191V23.4002H123.176V18.0936C123.176 17.1787 122.718 16.6297 121.895 16.6297C121.071 16.6297 120.431 17.2701 120.431 18.3681V23.4917H117.686V18.1851C117.686 17.2701 117.229 16.7212 116.405 16.7212C115.582 16.7212 114.941 17.3616 114.941 18.4596V23.5832H112.197V14.5253H114.941V15.3488C115.223 14.9772 115.604 14.6919 116.039 14.5253C116.497 14.3424 116.954 14.2509 117.412 14.2509C117.869 14.2509 118.327 14.3424 118.784 14.5253C119.242 14.7083 119.516 15.0743 119.791 15.4403C120.102 15.0386 120.512 14.7236 120.98 14.5253C121.447 14.3462 121.943 14.2532 122.444 14.2509C124.548 14.0679 125.921 15.6233 125.921 17.8191ZM128.208 14.2509C128.74 14.2461 129.25 14.0325 129.626 13.656C130.002 13.2796 130.216 12.7704 130.221 12.238C130.216 11.7056 130.002 11.1964 129.626 10.82C129.25 10.4435 128.74 10.2299 128.208 10.2251C127.676 10.2299 127.166 10.4435 126.79 10.82C126.413 11.1964 126.2 11.7056 126.195 12.238C126.2 12.7704 126.413 13.2796 126.79 13.656C127.166 14.0325 127.676 14.2461 128.208 14.2509Z" fill="#B4B7C9"/>
</svg>
