<svg width="142" height="34" viewBox="0 0 142 34" fill="none" xmlns="http://www.w3.org/2000/svg">
<path d="M70.9756 23.1257H66.3094V10.5911H70.9756V23.1257ZM66.7669 22.6683H70.5181V11.0486H66.7669V22.6683ZM77.4716 23.1257H72.8969V10.5911H82.5038C83.8762 10.4996 85.2486 10.8656 86.3465 11.689C86.7928 12.1459 87.1634 12.6709 87.4444 13.2444C87.7189 13.8849 87.8104 14.5253 87.7189 15.1658C87.8104 16.2637 87.4444 17.3616 86.7125 18.2766C85.889 19.283 84.5166 19.7405 82.5953 19.7405H77.5631L77.4716 23.1257ZM73.3544 22.6683H77.0142V19.283H77.2886H82.5953C84.3336 19.283 85.706 18.8255 86.438 18.0021C87.0784 17.1787 87.3529 16.2637 87.3529 15.2573C87.4444 14.7083 87.3529 14.0679 87.1699 13.5189C86.9869 12.97 86.621 12.5125 86.1635 12.055C85.1571 11.3231 83.8762 10.9571 82.5953 11.0486H73.4459L73.3544 22.6683ZM81.4973 16.9042H77.0142V13.5189H81.5888C81.9548 13.5189 82.2293 13.5189 82.5038 13.6104C82.7782 13.7019 83.0527 13.8849 83.3272 14.1594C83.5102 14.4339 83.6017 14.7998 83.6017 15.2573C83.6017 15.6233 83.5102 15.8977 83.4187 16.2637C83.2357 16.5382 82.9612 16.7212 82.5953 16.8127C82.2293 16.9042 81.8633 16.9957 81.4973 16.9042ZM77.4716 16.4467H81.4973C82.2293 16.4467 82.6868 16.2637 82.9612 15.9892C83.0527 15.7148 83.1442 15.5318 83.1442 15.2573C83.1442 14.9828 83.1442 14.7083 82.9612 14.4339C82.7782 14.0679 82.3208 13.9764 81.5888 13.9764H77.4716V16.4467ZM96.0448 23.3087C91.9276 23.3087 89.4573 22.3023 88.5423 20.1979C88.3593 19.832 88.2678 19.3745 88.2678 18.917V18.6426H93.117V18.8255C93.117 19.0085 93.2085 19.1915 93.3915 19.3745C93.5745 19.649 94.2149 20.015 96.4108 20.015C98.9726 20.015 98.9726 19.5575 98.9726 19.283C98.9726 18.917 98.6981 18.734 96.5938 18.5511H96.2278L93.9405 18.3681C90.0977 18.0021 88.3593 16.8127 88.3593 14.5253C88.3593 12.055 91.2871 10.4996 95.7703 10.4996C99.4301 10.4996 101.809 11.5061 102.815 13.4274C103.09 13.8849 103.181 14.3424 103.273 14.8913V15.1658H98.4236V14.9828C98.4236 14.7998 98.3321 14.7083 98.2406 14.5253C98.0577 14.2509 97.5087 13.8849 95.6788 13.8849C93.483 13.8849 93.2085 14.1594 93.2085 14.4339C93.2085 14.7998 93.9404 14.9828 96.1363 15.2573L99.0641 15.5318C102.266 15.8978 103.73 17.0872 103.73 19.283C103.639 21.0214 102.358 23.3087 96.0448 23.3087ZM88.7253 19.1C88.8168 19.3745 88.8168 19.7405 88.9998 20.015C89.8232 21.9363 92.2021 22.8513 96.0448 22.8513C99.3386 22.8513 103.181 22.2108 103.181 19.1C103.181 17.0872 101.9 16.0807 98.9726 15.8063C98.4236 15.7148 96.9597 15.6233 96.0448 15.5318C93.666 15.2573 92.6595 15.1658 92.6595 14.2509C92.6595 13.3359 93.666 13.2444 95.5873 13.2444C97.1427 13.2444 98.0577 13.5189 98.5151 14.0679C98.6066 14.1594 98.6981 14.3424 98.7896 14.5253H102.724C102.632 14.1594 102.541 13.7934 102.358 13.5189C101.443 11.7805 99.2471 10.8656 95.6788 10.8656C91.4701 10.8656 88.7253 12.238 88.7253 14.4339C88.7253 16.5382 90.2807 17.5446 93.849 17.8191C94.3064 17.8191 95.3128 17.9106 96.1363 18.0021H96.5023C98.4236 18.1851 99.3386 18.3681 99.3386 19.1915C99.3386 20.1979 98.2406 20.3809 96.3193 20.3809C94.5809 20.3809 93.3915 20.1065 93.0255 19.5575C92.934 19.3745 92.751 19.1915 92.751 19.0085H88.7253V19.1ZM112.331 23.3087C107.573 23.3087 104.92 21.3874 104.92 17.9106V10.6826H109.586V17.9106C109.586 19.1 110.684 19.832 112.514 19.832C114.343 19.832 115.441 19.1 115.441 17.9106V10.6826H120.016V18.1851C120.016 21.3874 117.18 23.3087 112.331 23.3087ZM105.377 11.0486V17.8191C105.377 22.1193 109.769 22.7598 112.331 22.7598C114.984 22.7598 119.559 22.1193 119.559 18.1851V11.0486H115.899V17.8191C115.899 19.1915 114.618 20.1979 112.514 20.1979C110.409 20.1979 109.128 19.283 109.128 17.8191V11.0486H105.377ZM139.413 23.1257H135.021V17.4531L132.551 23.1257H128.708L126.238 17.4531V23.1257H121.846V10.5911H127.61L130.629 17.4531L133.74 10.5911H139.321L139.413 23.1257ZM135.479 22.6683H138.955V11.0486H134.106L130.629 18.6426L127.336 11.0486H122.303V22.6683H125.78V15.2573L128.982 22.6683H132.185L135.387 15.2573L135.479 22.6683ZM7.2961 10.7741H3.0874V22.8513H14.6156V19.649H7.2961V10.7741ZM23.033 10.4996C17.7264 10.4996 14.8901 13.0615 14.8901 16.7212C14.8901 20.9299 17.8179 23.0342 23.033 23.0342C28.7056 23.0342 31.1759 20.5639 31.1759 16.7212C31.0844 12.8785 28.4311 10.4996 23.033 10.4996ZM23.033 13.7019C23.399 13.7019 23.7649 13.7019 24.1309 13.7934L19.4647 18.4596C19.2818 18.0021 19.0988 17.4531 19.1903 16.9042C19.0988 14.8913 20.0137 13.7019 23.033 13.7019ZM23.033 20.015C22.667 20.015 22.301 20.015 22.0266 19.9235L26.6927 15.2573C26.8757 15.7148 26.9672 16.2637 26.9672 16.8127C26.9672 18.6426 26.0523 19.9235 23.033 20.015ZM39.4103 18.3681H43.7105C43.619 18.6426 43.5275 18.917 43.3445 19.1915C42.4296 19.9235 41.3317 20.2894 40.1423 20.1979C39.5933 20.2894 38.9529 20.1979 38.4039 20.015C37.8549 19.832 37.3975 19.5575 36.94 19.1C36.4825 18.4596 36.2995 17.7276 36.391 16.9042C36.2995 16.0807 36.574 15.2573 37.0315 14.6168C37.6719 13.9764 38.6784 13.6104 40.1423 13.6104C41.0572 13.5189 42.0636 13.7934 42.7956 14.3424C43.0701 14.5253 43.253 14.7998 43.3445 15.0743H47.2788C47.2788 14.6168 47.0958 14.0679 46.9128 13.6104C45.9979 11.689 43.7105 10.4996 39.9593 10.4996C36.6655 10.4996 34.4697 11.5061 33.2803 12.97C32.4568 14.0679 32.0908 15.3488 32.0908 16.7212C31.9993 18.0936 32.4568 19.466 33.1888 20.5639C34.3782 22.1193 36.4825 22.8513 39.1358 22.8513C40.8742 22.9428 42.5211 22.4853 43.8935 21.4789L43.985 22.6683H47.2788V15.5318H39.2273V18.3681H39.4103ZM56.7941 10.4996C51.4875 10.4996 48.6512 13.0615 48.6512 16.7212C48.6512 20.9299 51.579 23.0342 56.7941 23.0342C62.4667 23.0342 64.937 20.5639 64.937 16.7212C64.8455 12.8785 62.1922 10.4996 56.7941 10.4996ZM56.7941 13.7019C57.1601 13.7019 57.526 13.7019 57.892 13.7934L53.2258 18.4596C53.0429 18.0021 52.9514 17.4531 52.9514 16.9042C52.8599 14.8913 53.7748 13.7019 56.7941 13.7019ZM56.7941 19.9235C56.4281 19.9235 56.0621 19.9235 55.6962 19.832L60.3623 15.1658C60.5453 15.6233 60.7283 16.1722 60.6368 16.7212C60.7283 18.6426 59.8134 19.9235 56.7941 19.9235Z" fill="#B4B7C9"/>
</svg>
