<svg width="142" height="34" viewBox="0 0 142 34" fill="none" xmlns="http://www.w3.org/2000/svg">
<path d="M19.9222 28.9813H43.3446V5.55896H19.9222V28.9813ZM38.9529 14.9828H34.0122V10.0421H38.9529V14.9828ZM24.4969 10.0421H29.4376V19.5575H38.9529V24.4981H24.4969V10.0421ZM58.7155 5.55896C56.4282 5.55896 54.1408 6.29091 52.2195 7.57182C50.2981 8.85273 48.7427 10.6826 47.9193 12.8784C47.0043 14.9828 46.8213 17.3616 47.2788 19.649C47.7363 21.9363 48.8342 24.0406 50.4811 25.6875C52.128 27.3344 54.2323 28.4323 56.5196 28.8898C58.807 29.3473 61.1858 29.0728 63.2902 28.2493C65.4173 27.3255 67.2521 25.8387 68.5968 23.9492C69.8777 22.0278 70.6096 19.7405 70.6096 17.4531C70.6096 14.3423 69.3287 11.3231 67.1329 9.12721C64.8456 6.74838 61.8263 5.55896 58.7155 5.55896ZM58.7155 24.4981C57.2516 24.4981 55.8792 24.0406 54.6898 23.3087C53.5004 22.4853 52.5854 21.3873 52.0365 20.1064C51.4875 18.8255 51.3045 17.3616 51.6705 15.8977C51.945 14.5253 52.6769 13.2444 53.6833 12.238C54.6898 11.2316 55.9707 10.4996 57.3431 10.2251C58.7155 9.95065 60.1794 10.1336 61.5518 10.5911C62.8327 11.1401 64.0221 12.055 64.7541 13.2444C65.5775 14.4338 65.9435 15.8062 65.9435 17.2701C65.9435 19.1915 65.2115 21.0214 63.8391 22.3938C62.4667 23.7662 60.6369 24.4981 58.7155 24.4981ZM112.422 5.55896C110.135 5.55896 107.847 6.29091 105.926 7.57182C104.005 8.85273 102.449 10.6826 101.626 12.8784C100.711 14.9828 100.528 17.3616 100.985 19.649C101.443 21.9363 102.541 24.0406 104.188 25.6875C105.835 27.3344 107.939 28.4323 110.226 28.8898C112.514 29.3473 114.893 29.0728 116.997 28.2493C119.124 27.3255 120.959 25.8387 122.303 23.9492C123.584 22.0278 124.316 19.7405 124.316 17.4531C124.316 14.3423 123.035 11.3231 120.84 9.12721C118.552 6.74838 115.533 5.55896 112.422 5.55896ZM112.422 24.4981C110.958 24.4981 109.586 24.0406 108.396 23.3087C107.207 22.4853 106.292 21.3873 105.743 20.1064C105.194 18.8255 105.011 17.3616 105.377 15.8977C105.652 14.5253 106.384 13.2444 107.39 12.238C108.396 11.2316 109.677 10.4996 111.05 10.2251C112.422 9.95065 113.886 10.1336 115.258 10.5911C116.539 11.1401 117.729 12.055 118.461 13.2444C119.284 14.4338 119.65 15.8062 119.65 17.2701C119.65 19.1915 118.918 21.0214 117.546 22.3938C116.173 23.7662 114.344 24.4981 112.422 24.4981ZM85.6146 5.55896C83.3272 5.55896 81.0399 6.29091 79.1185 7.57182C77.1972 8.85273 75.6418 10.6826 74.8183 12.8784C73.9034 14.9828 73.7204 17.3616 74.1779 19.649C74.6354 21.9363 75.7333 24.0406 77.3802 25.6875C79.027 27.3344 81.1314 28.4323 83.4187 28.8898C85.7061 29.3473 88.0849 29.0728 90.1892 28.2493C92.3164 27.3255 94.1512 25.8387 95.4959 23.9492C96.7768 22.0278 97.5087 19.7405 97.5087 17.4531C97.5087 14.3423 96.2278 11.3231 94.032 9.12721C91.6532 6.74838 88.7253 5.55896 85.6146 5.55896ZM85.6146 24.4981C84.2422 24.4981 82.9613 24.1321 81.8633 23.4002C80.7654 22.6682 79.8505 21.7533 79.21 20.5639C78.5696 19.3745 78.2951 18.0936 78.4781 16.7212C78.5696 15.4403 79.027 14.1593 79.8505 13.0614C80.6739 11.9635 81.6804 11.1401 82.9613 10.5911C84.1507 10.0421 85.5231 9.95065 86.804 10.1336C88.0849 10.3166 89.3658 10.8656 90.3722 11.7805C91.3787 12.604 92.1106 13.7934 92.5681 14.9828H85.7061V19.466H92.5681C92.1106 20.9299 91.1957 22.1193 89.9148 23.0342C88.5424 24.0406 87.0785 24.4981 85.6146 24.4981Z" fill="#B4B7C9"/>
</svg>
