<svg width="16" height="13" viewBox="0 0 16 13" fill="none" xmlns="http://www.w3.org/2000/svg">
<path d="M13.861 0.665479H2.13907C1.72657 0.665479 1.3771 0.808707 1.09064 1.09517C0.804179 1.38162 0.66095 1.72537 0.66095 2.12642V10.9264C0.66095 11.3275 0.804179 11.6741 1.09064 11.9663C1.3771 12.2584 1.72657 12.4045 2.13907 12.4045H13.861C14.2734 12.4045 14.6229 12.2584 14.9094 11.9663C15.1958 11.6741 15.3391 11.3275 15.3391 10.9264V2.12642C15.3391 1.72537 15.1958 1.38162 14.9094 1.09517C14.6229 0.808707 14.2734 0.665479 13.861 0.665479ZM13.861 2.12642V2.50454L8.00001 7.07642L2.13907 2.50454V2.12642H13.861ZM2.13907 10.9264V4.36079L7.55314 8.57173C7.61043 8.61756 7.67918 8.6548 7.75939 8.68345C7.8396 8.71209 7.9198 8.72642 8.00001 8.72642C8.08022 8.72642 8.16043 8.71209 8.24064 8.68345C8.32085 8.6548 8.3896 8.61756 8.44689 8.57173L13.861 4.36079V10.9264H2.13907Z" fill="#9397AD"/>
</svg>
